<svg height="480pt" viewBox="0 0 480 480.00083" width="480pt" xmlns="http://www.w3.org/2000/svg"><path d="m152 320h-72l-80 160h480l-88-160h-64" fill="#bab8b9"/><path d="m328 320h-248l-68 136h420l-74.800781-136zm0 0" fill="#d9d7d8"/><path d="m336 456-52.984375-52.984375 28.679687-51.320313 64.304688 64.304688zm0 0" fill="#599072"/><path d="m403.351562 340.648438-51.351562 51.351562 88 88h40zm0 0" fill="#ca5057"/><path d="m197.335938 320h-117.335938l-6.222656 12.449219 51.558594 51.550781-48 48 21.472656 26.527344 138.527344-138.527344zm0 0" fill="#5b6673"/><path d="m392 152c0-88.4375-75.527344-159.238281-165.609375-151.40625-79.054687 6.871094-138.390625 75.695312-138.390625 155.046875v.265625c0 34.160156 8.753906 67.742188 25.410156 97.566406l126.589844 226.527344 126.59375-226.527344c16.65625-29.816406 25.40625-63.40625 25.40625-97.558594zm0 0" fill="#ca5057"/><path d="m228.074219.488281c-.5625.039063-1.121094.054688-1.683594.105469-79.054687 6.871094-138.390625 75.695312-138.390625 155.046875v.265625c0 34.160156 8.753906 67.742188 25.410156 97.558594l114.589844 205.0625 114.59375-205.054688c16.65625-29.816406 25.40625-63.40625 25.40625-97.558594v-3.914062c0-79.878906-61.625-145.351562-139.925781-151.511719zm0 0" fill="#dc6068"/><path d="m360 152c0 66.273438-53.726562 120-120 120s-120-53.726562-120-120 53.726562-120 120-120 120 53.726562 120 120zm0 0" fill="#fff"/><path d="m304 112c0-17.671875-10.746094-32-24-32s-24 14.328125-24 32c0 17.675781 10.746094 32 24 32s24-14.324219 24-32zm0 0" fill="#d9d7d8"/><g fill="#5b6673"><path d="m192 80h16v144h-16zm0 0"/><path d="m280 152c-17.648438 0-32-17.941406-32-40 0-22.054688 14.351562-40 32-40s32 17.945312 32 40c0 22.058594-14.351562 40-32 40zm0-64c-8.671875 0-16 10.992188-16 24s7.328125 24 16 24 16-10.992188 16-24-7.328125-24-16-24zm0 0"/><path d="m272 144h16v80h-16zm0 0"/></g><path d="m0 480h120l-74.480469-91.03125zm0 0" fill="#eebc5a"/><path d="m0 480h96l-59.582031-72.824219zm0 0" fill="#f8cf6a"/><path d="m224 152h-48c-4.414062 0-8-3.574219-8-8v-64h16v56h32v-56h16v64c0 4.425781-3.582031 8-8 8zm0 0" fill="#5b6673"/></svg>