<svg height="512pt" viewBox="-75 0 512 512" width="512pt" xmlns="http://www.w3.org/2000/svg"><path d="m181.332031 12.800781c-94.996093 0-172.265625 77.289063-172.265625 172.265625 0 166.527344 158.871094 305.8125 165.632813 311.660156 1.917969 1.640626 4.265625 2.472657 6.632812 2.472657 2.371094 0 4.714844-.832031 6.636719-2.472657 6.761719-5.847656 165.632812-145.132812 165.632812-311.660156 0-94.976562-77.269531-172.265625-172.269531-172.265625zm0 0" fill="#2196f3"/><path d="m210.21875 109.78125-21.332031-21.332031c-4.160157-4.160157-10.925781-4.160157-15.085938 0l-21.332031 21.332031c-2.003906 2.003906-3.136719 4.714844-3.136719 7.550781v106.667969c0 5.886719 4.78125 10.667969 10.667969 10.667969h42.667969c5.886719 0 10.664062-4.78125 10.664062-10.667969v-106.667969c0-2.835937-1.128906-5.546875-3.113281-7.550781zm0 0" fill="#eceff1"/><path d="m224 213.332031h-85.332031c-5.890625 0-10.667969 4.78125-10.667969 10.667969v42.667969c0 5.886719 4.777344 10.664062 10.667969 10.664062h85.332031c5.886719 0 10.667969-4.777343 10.667969-10.664062v-42.667969c0-5.886719-4.78125-10.667969-10.667969-10.667969zm0 0" fill="#cfd8dc"/><path d="m181.332031 512c-2.496093 0-4.96875-.875-6.976562-2.601562-7.125-6.144532-174.355469-152.769532-174.355469-328.066407 0-99.988281 81.34375-181.332031 181.332031-181.332031 99.992188 0 181.335938 81.34375 181.335938 181.332031 0 175.296875-167.234375 321.921875-174.359375 328.066407-2.003906 1.726562-4.480469 2.601562-6.976563 2.601562zm0-490.667969c-88.234375 0-160 71.765625-160 160 0 145.792969 128.363281 275.734375 160 305.539063 31.636719-29.804688 160-159.746094 160-305.539063 0-88.234375-71.765625-160-160-160zm0 0"/><path d="m202.667969 234.667969c-5.890625 0-10.667969-4.78125-10.667969-10.667969v-102.25l-10.667969-10.667969-10.664062 10.667969v102.25c0 5.886719-4.78125 10.667969-10.667969 10.667969s-10.667969-4.78125-10.667969-10.667969v-106.667969c0-2.835937 1.132813-5.546875 3.117188-7.550781l21.332031-21.332031c4.160156-4.160157 10.921875-4.160157 15.082031 0l21.335938 21.332031c2.003906 2.003906 3.132812 4.714844 3.132812 7.550781v106.667969c0 5.886719-4.777343 10.667969-10.664062 10.667969zm0 0"/><path d="m224 277.332031c-5.886719 0-10.667969-4.777343-10.667969-10.664062v-32h-64v32c0 5.886719-4.777343 10.664062-10.664062 10.664062-5.890625 0-10.667969-4.777343-10.667969-10.664062v-42.667969c0-5.886719 4.777344-10.667969 10.667969-10.667969h85.332031c5.886719 0 10.667969 4.78125 10.667969 10.667969v42.667969c0 5.886719-4.78125 10.664062-10.667969 10.664062zm0 0"/><path d="m245.332031 277.332031h-128c-5.886719 0-10.664062-4.777343-10.664062-10.664062 0-5.890625 4.777343-10.667969 10.664062-10.667969h128c5.890625 0 10.667969 4.777344 10.667969 10.667969 0 5.886719-4.777344 10.664062-10.667969 10.664062zm0 0"/></svg>