<svg height="512pt" viewBox="-59 0 512 512" width="512pt" xmlns="http://www.w3.org/2000/svg"><path d="m242.179688 421.875h57.785156c22.125 0 40.0625 17.9375 40.0625 40.0625s-17.9375 40.0625-40.0625 40.0625h-205.785156c-22.128907 0-40.0625-17.9375-40.0625-40.0625s17.9375-40.0625 40.0625-40.0625h62.957031" fill="#72d8ff"/><path d="m329.566406 329.566406-132.367187 132.371094-132.371094-132.371094c-73.105469-73.105468-73.105469-191.632812 0-264.738281s191.632813-73.105469 264.738281 0c73.105469 73.105469 73.105469 191.632813 0 264.738281zm0 0" fill="#ff5d5d"/><path d="m319.199219 197.199219c0 67.378906-54.621094 122-122 122-67.378907 0-122-54.621094-122-122 0-67.378907 54.621093-122 122-122 67.378906 0 122 54.621093 122 122zm0 0" fill="#fff"/><path d="m167.300781 121.667969-18.078125 48.207031c-4.566406 12.179688-3.980468 25.691406 1.621094 37.429688 6.792969 14.234374 20.160156 24.210937 35.738281 26.667968 7.035157 1.113282 14.199219 1.113282 21.234375 0 15.578125-2.460937 28.945313-12.433594 35.738282-26.667968 5.601562-11.738282 6.1875-25.25 1.621093-37.429688l-18.078125-48.207031zm0 0" fill="#ffefd5"/><path d="m196.898438 165.0625c-28.472657-14.828125-44.945313 0-44.945313 0l-1.335937 1.089844-1.394532 3.722656c-4.566406 12.179688-3.984375 25.691406 1.621094 37.429688 6.792969 14.234374 20.160156 24.210937 35.738281 26.667968 7.035157 1.113282 14.199219 1.113282 21.230469 0 15.578125-2.460937 28.949219-12.433594 35.742188-26.667968 5.601562-11.738282 6.1875-25.25 1.621093-37.429688l-1.066406-2.835938-1.929687-1.296874s-16.804688 14.148437-45.28125-.679688zm0 0" fill="#ffb954"/><path d="m290.535156 290.535156c20.753906-20.753906 33.734375-47.066406 37.539063-76.101562 3.683593-28.101563-1.882813-57.128906-15.667969-81.726563-2.699219-4.816406-8.792969-6.53125-13.609375-3.835937-4.820313 2.703125-6.535156 8.796875-3.835937 13.613281 24.390624 43.523437 16.753906 98.589844-18.566407 133.910156-21.152343 21.15625-49.28125 32.804688-79.195312 32.804688-29.917969 0-58.042969-11.648438-79.195313-32.804688-21.152344-21.152343-32.804687-49.28125-32.804687-79.195312 0-29.917969 11.648437-58.042969 32.804687-79.195313 34.8125-34.8125 87.488282-42.890625 131.070313-20.101562 4.894531 2.558594 10.9375.664062 13.496093-4.230469 2.5625-4.894531.667969-10.933594-4.226562-13.492187-24.375-12.746094-52.863281-17.578126-80.21875-13.601563-28.304688 4.109375-53.984375 17.003906-74.265625 37.28125-24.929687 24.933594-38.660156 58.082031-38.660156 93.339844 0 35.257812 13.730469 68.40625 38.660156 93.335937 24.933594 24.933594 58.078125 38.664063 93.339844 38.664063 35.257812 0 68.40625-13.730469 93.335937-38.664063zm0 0"/><path d="m276.875 118.488281c1.957031 1.984375 4.539062 2.976563 7.121094 2.976563 2.535156 0 5.074218-.957032 7.019531-2.878906 3.933594-3.878907 3.976563-10.210938.097656-14.144532l-.585937-.589844c-3.914063-3.902343-10.246094-3.890624-14.144532.019532-3.898437 3.910156-3.890624 10.242187.019532 14.140625zm0 0"/><path d="m299.964844 411.875h-38.5625l75.238281-75.234375c76.886719-76.886719 76.886719-201.996094 0-278.882813-37.25-37.246093-86.769531-57.757812-139.441406-57.757812-52.675781 0-102.195313 20.511719-139.441407 57.757812-37.246093 37.246094-57.757812 86.765626-57.757812 139.441407 0 52.671875 20.511719 102.191406 57.757812 139.4375l75.234376 75.238281h-38.8125c-27.605469 0-50.0625 22.457031-50.0625 50.0625s22.457031 50.0625 50.0625 50.0625h205.785156c27.601562 0 50.0625-22.457031 50.0625-50.0625s-22.460938-50.0625-50.0625-50.0625zm-228.066406-339.976562c33.46875-33.464844 77.96875-51.898438 125.300781-51.898438 47.328125 0 91.828125 18.433594 125.296875 51.902344 33.46875 33.464844 51.898437 77.964844 51.898437 125.296875s-18.429687 91.828125-51.898437 125.296875l-125.296875 125.300781-125.300781-125.300781c-69.089844-69.089844-69.089844-181.507813 0-250.597656zm228.066406 420.101562h-205.785156c-16.578126 0-30.066407-13.484375-30.066407-30.0625s13.488281-30.0625 30.066407-30.0625h58.8125l37.132812 37.132812c1.878906 1.875 4.421875 2.929688 7.070312 2.929688 2.652344 0 5.195313-1.054688 7.074219-2.929688l37.167969-37.171874c.246094.019531.488281.039062.738281.039062h57.785157c16.578124 0 30.0625 13.484375 30.0625 30.0625s-13.484376 30.0625-30.058594 30.0625zm0 0"/><path d="m209.375 243.851562c18.835938-2.976562 34.988281-15.027343 43.203125-32.238281 6.734375-14.113281 7.449219-30.605469 1.957031-45.25l-18.074218-48.207031c-1.464844-3.902344-5.195313-6.492188-9.363282-6.492188h-59.796875c-4.167969 0-7.898437 2.589844-9.363281 6.492188l-18.078125 48.207031c-5.492187 14.644531-4.777344 31.136719 1.960937 45.25 8.214844 17.210938 24.363282 29.265625 43.203126 32.238281.675781.109376 1.351562.191407 2.027343.28125v26.867188h-14.101562c-5.519531 0-10 4.476562-10 10s4.480469 10 10 10h48.203125c5.523437 0 10-4.476562 10-10s-4.476563-10-10-10h-14.101563v-26.828125c.773438-.097656 1.550781-.199219 2.324219-.320313zm10.789062-112.183593 10.78125 28.742187c-5.515624 1.863282-15.511718 3.027344-29.425781-4.214844-13.371093-6.964843-24.730469-8.378906-33.679687-7.484374l6.390625-17.042969zm-60.296874 71.332031c-4.40625-9.238281-4.875-20.03125-1.28125-29.613281l.433593-1.152344c2.519531-1.753906 14.007813-8.328125 33.261719 1.695313 11.355469 5.914062 21.300781 7.90625 29.554688 7.90625 6.21875 0 11.472656-1.136719 15.640624-2.570313 1.578126 7.960937.582032 16.34375-2.945312 23.730469-5.378906 11.265625-15.945312 19.152344-28.273438 21.097656-6.011718.949219-12.105468.949219-18.113281 0-12.332031-1.945312-22.902343-9.832031-28.277343-21.09375zm0 0"/></svg>